<svg width="32" height="32" viewBox="0 0 32 32" fill="none" xmlns="http://www.w3.org/2000/svg">
<path d="M30.158 27.0968C30.1288 27.0699 27.4241 24.4253 27.4241 20.4697V13.6733C27.4241 7.27123 22.2814 2.06452 15.9635 2.06452C9.64563 2.06452 4.50296 7.27123 4.50296 13.6733V20.4697C4.50296 24.3117 1.7816 27.0823 1.75659 27.1092L0 28.8702H32L30.158 27.0968ZM4.61132 26.8057C5.5365 25.377 6.5867 23.1639 6.5867 20.4697V13.6733C6.5867 8.41084 10.7938 4.12903 15.9635 4.12903C21.1333 4.12903 25.3404 8.41084 25.3404 13.6733V20.4697C25.3404 23.1948 26.3718 25.3894 27.2949 26.8057H4.61132ZM17.0054 2.06452H14.9217V0H17.0054V2.06452ZM17.0054 28.9032H19.0891C19.0891 30.6106 17.6868 32 15.9635 32C14.2403 32 12.8379 30.6106 12.8379 28.9032H14.9217C14.9217 29.473 15.3905 29.9355 15.9635 29.9355C16.5366 29.9355 17.0054 29.473 17.0054 28.9032Z" fill="white"/>
</svg>
