<svg xmlns="http://www.w3.org/2000/svg" width="47" height="29" fill="none" viewBox="0 0 47 29"><path fill="#FFBD2F" d="M0.71 14.75C0.71 10.3927 1.546 6.96 3.218 4.452C4.91533 1.944 7.63867 0.689998 11.388 0.689998C15.1373 0.689998 17.848 1.944 19.52 4.452C21.2173 6.96 22.066 10.3927 22.066 14.75C22.066 19.158 21.2173 22.616 19.52 25.124C17.848 27.632 15.1373 28.886 11.388 28.886C7.63867 28.886 4.91533 27.632 3.218 25.124C1.546 22.616 0.71 19.158 0.71 14.75ZM15.682 14.75C15.682 12.1913 15.4033 10.228 14.846 8.86C14.2887 7.46667 13.136 6.77 11.388 6.77C9.64 6.77 8.48733 7.46667 7.93 8.86C7.37267 10.228 7.094 12.1913 7.094 14.75C7.094 16.4727 7.19533 17.904 7.398 19.044C7.60067 20.1587 8.006 21.0707 8.614 21.78C9.24733 22.464 10.172 22.806 11.388 22.806C12.604 22.806 13.516 22.464 14.124 21.78C14.7573 21.0707 15.1753 20.1587 15.378 19.044C15.5807 17.904 15.682 16.4727 15.682 14.75ZM45.0311 6.922H33.1751V12.166C33.6817 11.6087 34.3911 11.1527 35.3031 10.798C36.2151 10.4433 37.2031 10.266 38.2671 10.266C40.1671 10.266 41.7377 10.6967 42.9791 11.558C44.2457 12.4193 45.1704 13.534 45.7531 14.902C46.3357 16.27 46.6271 17.752 46.6271 19.348C46.6271 22.312 45.7911 24.668 44.1191 26.416C42.4471 28.1387 40.0911 29 37.0511 29C35.0244 29 33.2637 28.658 31.7691 27.974C30.2744 27.2647 29.1217 26.2893 28.3111 25.048C27.5004 23.8067 27.0571 22.3753 26.9811 20.754H33.3271C33.4791 21.5393 33.8464 22.198 34.4291 22.73C35.0117 23.2367 35.8097 23.49 36.8231 23.49C38.0137 23.49 38.9004 23.11 39.4831 22.35C40.0657 21.59 40.3571 20.5767 40.3571 19.31C40.3571 18.0687 40.0531 17.1187 39.4451 16.46C38.8371 15.8013 37.9504 15.472 36.7851 15.472C35.9237 15.472 35.2144 15.6873 34.6571 16.118C34.0997 16.5233 33.7324 17.068 33.5551 17.752H27.2851V1.222H45.0311V6.922Z"/></svg>