<svg width="34" height="34" viewBox="0 0 34 34" fill="none" xmlns="http://www.w3.org/2000/svg">
<g clip-path="url(#clip0)">
<path d="M31.9943 14.0144H17.0002L13.0195 17L17.0002 19.9855H31.9943V14.0144Z" fill="#FFBD2F"/>
<path d="M2.00586 14.0144H17V19.9855H2.00586V14.0144Z" fill="#FFBD2F"/>
<path d="M6.96165 0L2.74121 4.22044L3.37402 4.92231C9.58184 11.8077 9.58184 22.1923 3.37402 29.0777L2.74121 29.7796L6.96165 34L7.66405 33.2356C11.7378 28.8025 13.9813 23.0366 13.9813 17.0001C13.9813 10.9635 11.7378 5.19758 7.66412 0.764368L6.96165 0Z" fill="#FFBD2F"/>
<path d="M30.626 4.92231L31.2588 4.22044L27.0384 0L26.336 0.764368C22.2622 5.19751 20.0187 10.9635 20.0187 16.9999C20.0187 23.0365 22.2622 28.8024 26.3359 33.2355L27.0383 33.9999L31.2587 29.7794L30.6259 29.0776C24.4181 22.1923 24.4181 11.8077 30.626 4.92231Z" fill="#FFBD2F"/>
</g>
<defs>
<clipPath id="clip0">
<rect width="34" height="34" fill="white"/>
</clipPath>
</defs>
</svg>
