<svg width="10" height="14" viewBox="0 0 10 14" fill="none" xmlns="http://www.w3.org/2000/svg">
<path d="M1.07803 11.156C2.23003 10.196 3.14803 9.398 3.83203 8.762C4.51603 8.114 5.08603 7.442 5.54203 6.746C5.99803 6.05 6.22603 5.366 6.22603 4.694C6.22603 4.082 6.08203 3.602 5.79403 3.254C5.50603 2.906 5.06203 2.732 4.46203 2.732C3.86203 2.732 3.40003 2.936 3.07603 3.344C2.75203 3.74 2.58403 4.286 2.57203 4.982H0.124031C0.172031 3.542 0.598031 2.45 1.40203 1.706C2.21803 0.961999 3.25003 0.589999 4.49803 0.589999C5.86603 0.589999 6.91603 0.955999 7.64803 1.688C8.38003 2.408 8.74603 3.362 8.74603 4.55C8.74603 5.486 8.49403 6.38 7.99003 7.232C7.48603 8.084 6.91003 8.828 6.26203 9.464C5.61403 10.088 4.76803 10.844 3.72403 11.732H9.03403V13.82H0.142031V11.948L1.07803 11.156Z" fill="white"/>
</svg>
