<svg width="10" height="15" viewBox="0 0 10 15" fill="none" xmlns="http://www.w3.org/2000/svg">
<path d="M1.1023 4.334C1.1623 3.134 1.5823 2.21 2.3623 1.562C3.1543 0.901999 4.1923 0.571999 5.4763 0.571999C6.3523 0.571999 7.1023 0.727999 7.7263 1.04C8.35031 1.34 8.81831 1.754 9.13031 2.282C9.4543 2.798 9.6163 3.386 9.6163 4.046C9.6163 4.802 9.4183 5.444 9.02231 5.972C8.63831 6.488 8.17631 6.836 7.6363 7.016V7.088C8.3323 7.304 8.8723 7.688 9.2563 8.24C9.6523 8.792 9.8503 9.5 9.8503 10.364C9.8503 11.084 9.6823 11.726 9.3463 12.29C9.02231 12.854 8.53631 13.298 7.8883 13.622C7.2523 13.934 6.4843 14.09 5.58431 14.09C4.2283 14.09 3.1243 13.748 2.2723 13.064C1.4203 12.38 0.970305 11.372 0.922305 10.04H3.3703C3.3943 10.628 3.5923 11.102 3.9643 11.462C4.3483 11.81 4.8703 11.984 5.53031 11.984C6.14231 11.984 6.61031 11.816 6.9343 11.48C7.2703 11.132 7.4383 10.688 7.4383 10.148C7.4383 9.428 7.2103 8.912 6.75431 8.6C6.29831 8.288 5.59031 8.132 4.6303 8.132H4.10831V6.062H4.6303C6.3343 6.062 7.1863 5.492 7.1863 4.352C7.1863 3.836 7.0303 3.434 6.7183 3.146C6.4183 2.858 5.9803 2.714 5.4043 2.714C4.8403 2.714 4.4023 2.87 4.0903 3.182C3.7903 3.482 3.6163 3.866 3.5683 4.334H1.1023Z" fill="white"/>
</svg>
