<svg width="36" height="29" viewBox="0 0 36 29" fill="none" xmlns="http://www.w3.org/2000/svg">
<path d="M0.71 14.75C0.71 10.3927 1.546 6.96 3.218 4.452C4.91533 1.944 7.63867 0.689998 11.388 0.689998C15.1373 0.689998 17.848 1.944 19.52 4.452C21.2173 6.96 22.066 10.3927 22.066 14.75C22.066 19.158 21.2173 22.616 19.52 25.124C17.848 27.632 15.1373 28.886 11.388 28.886C7.63867 28.886 4.91533 27.632 3.218 25.124C1.546 22.616 0.71 19.158 0.71 14.75ZM15.682 14.75C15.682 12.1913 15.4033 10.228 14.846 8.86C14.2887 7.46667 13.136 6.77 11.388 6.77C9.64 6.77 8.48733 7.46667 7.93 8.86C7.37267 10.228 7.094 12.1913 7.094 14.75C7.094 16.4727 7.19533 17.904 7.398 19.044C7.60067 20.1587 8.006 21.0707 8.614 21.78C9.24733 22.464 10.172 22.806 11.388 22.806C12.604 22.806 13.516 22.464 14.124 21.78C14.7573 21.0707 15.1753 20.1587 15.378 19.044C15.5807 17.904 15.682 16.4727 15.682 14.75ZM24.8151 7.302V1.26H35.3411V29H28.5771V7.302H24.8151Z" fill="#FFBD2F"/>
</svg>
