<svg width="15" height="30" viewBox="0 0 15 30" fill="none" xmlns="http://www.w3.org/2000/svg">
<path d="M15 6.50987V23.4483H12.8611V6.50987C12.8611 4.33526 11.1521 1.99322 7.3984 1.99322C3.24683 1.99322 2.13889 4.83157 2.13889 6.50987V22.6968H2.15386V25.601C2.15386 26.8368 3.6361 28.0048 5.20391 28.0048C7.00913 28.0048 8.55554 26.6434 8.55554 25.5312V24.993H8.54912L8.56623 9.81064C8.56623 8.06857 8.03793 8.06857 7.56951 8.06857C6.78027 8.06857 6.39954 8.13833 6.39954 9.70899V19.9661H4.26066V9.70899C4.26066 8.81005 4.26066 6.07534 7.56951 6.07534C9.00043 6.07534 10.7051 6.72314 10.7051 9.81264L10.6901 22.6291H10.6944V25.5332C10.6944 27.8712 8.07643 30 5.20391 30C2.44047 30 0.0149721 27.945 0.0149721 25.603V25.4555H0V6.50987C0 3.37453 2.31427 0 7.3984 0C12.3884 0.00199322 15 3.27487 15 6.50987Z" fill="white"/>
</svg>
