<svg width="47" height="30" viewBox="0 0 47 30" fill="none" xmlns="http://www.w3.org/2000/svg">
<path d="M0.71 14.75C0.71 10.3927 1.546 6.96 3.218 4.452C4.91533 1.944 7.63867 0.689998 11.388 0.689998C15.1373 0.689998 17.848 1.944 19.52 4.452C21.2173 6.96 22.066 10.3927 22.066 14.75C22.066 19.158 21.2173 22.616 19.52 25.124C17.848 27.632 15.1373 28.886 11.388 28.886C7.63867 28.886 4.91533 27.632 3.218 25.124C1.546 22.616 0.71 19.158 0.71 14.75ZM15.682 14.75C15.682 12.1913 15.4033 10.228 14.846 8.86C14.2887 7.46667 13.136 6.77 11.388 6.77C9.64 6.77 8.48733 7.46667 7.93 8.86C7.37267 10.228 7.094 12.1913 7.094 14.75C7.094 16.4727 7.19533 17.904 7.398 19.044C7.60067 20.1587 8.006 21.0707 8.614 21.78C9.24733 22.464 10.172 22.806 11.388 22.806C12.604 22.806 13.516 22.464 14.124 21.78C14.7573 21.0707 15.1753 20.1587 15.378 19.044C15.5807 17.904 15.682 16.4727 15.682 14.75ZM39.2171 8.746C39.0144 7.80866 38.6597 7.112 38.1531 6.656C37.6464 6.17467 36.9244 5.934 35.9871 5.934C34.5431 5.934 33.5044 6.56733 32.8711 7.834C32.2377 9.07533 31.9084 11.0513 31.8831 13.762C32.4404 12.8753 33.2384 12.1787 34.2771 11.672C35.3411 11.1653 36.5064 10.912 37.7731 10.912C40.2557 10.912 42.2444 11.6973 43.7391 13.268C45.2591 14.8387 46.0191 17.03 46.0191 19.842C46.0191 21.6913 45.6391 23.3127 44.8791 24.706C44.1444 26.0993 43.0551 27.1887 41.6111 27.974C40.1924 28.7593 38.5077 29.152 36.5571 29.152C32.6557 29.152 29.9451 27.936 28.4251 25.504C26.9051 23.0467 26.1451 19.5253 26.1451 14.94C26.1451 10.1267 26.9431 6.55467 28.5391 4.224C30.1604 1.868 32.7444 0.689998 36.2911 0.689998C38.1911 0.689998 39.7871 1.07 41.0791 1.83C42.3964 2.56466 43.3844 3.54 44.0431 4.756C44.7271 5.972 45.1324 7.302 45.2591 8.746H39.2171ZM36.2151 16.042C35.1257 16.042 34.2137 16.3713 33.4791 17.03C32.7697 17.6633 32.4151 18.5753 32.4151 19.766C32.4151 20.982 32.7444 21.932 33.4031 22.616C34.0871 23.3 35.0497 23.642 36.2911 23.642C37.4057 23.642 38.2797 23.3127 38.9131 22.654C39.5717 21.97 39.9011 21.0453 39.9011 19.88C39.9011 18.6893 39.5844 17.752 38.9511 17.068C38.3177 16.384 37.4057 16.042 36.2151 16.042Z" fill="#FFBD2F"/>
</svg>
