<svg width="45" height="30" viewBox="0 0 45 30" fill="none" xmlns="http://www.w3.org/2000/svg">
<path d="M0.71 14.75C0.71 10.3927 1.546 6.96 3.218 4.452C4.91533 1.944 7.63867 0.689998 11.388 0.689998C15.1373 0.689998 17.848 1.944 19.52 4.452C21.2173 6.96 22.066 10.3927 22.066 14.75C22.066 19.158 21.2173 22.616 19.52 25.124C17.848 27.632 15.1373 28.886 11.388 28.886C7.63867 28.886 4.91533 27.632 3.218 25.124C1.546 22.616 0.71 19.158 0.71 14.75ZM15.682 14.75C15.682 12.1913 15.4033 10.228 14.846 8.86C14.2887 7.46667 13.136 6.77 11.388 6.77C9.64 6.77 8.48733 7.46667 7.93 8.86C7.37267 10.228 7.094 12.1913 7.094 14.75C7.094 16.4727 7.19533 17.904 7.398 19.044C7.60067 20.1587 8.006 21.0707 8.614 21.78C9.24733 22.464 10.172 22.806 11.388 22.806C12.604 22.806 13.516 22.464 14.124 21.78C14.7573 21.0707 15.1753 20.1587 15.378 19.044C15.5807 17.904 15.682 16.4727 15.682 14.75ZM25.7271 9.088C25.8284 6.37733 26.7151 4.28733 28.3871 2.818C30.0591 1.34867 32.3264 0.613999 35.1891 0.613999C37.0891 0.613999 38.7104 0.943332 40.0531 1.602C41.4211 2.26067 42.4471 3.16 43.1311 4.3C43.8404 5.44 44.1951 6.71933 44.1951 8.138C44.1951 9.81 43.7771 11.178 42.9411 12.242C42.1051 13.2807 41.1297 13.99 40.0151 14.37V14.522C41.4591 15.0033 42.5991 15.8013 43.4351 16.916C44.2711 18.0307 44.6891 19.462 44.6891 21.21C44.6891 22.7807 44.3217 24.174 43.5871 25.39C42.8777 26.5807 41.8264 27.518 40.4331 28.202C39.0651 28.886 37.4311 29.228 35.5311 29.228C32.4911 29.228 30.0591 28.4807 28.2351 26.986C26.4364 25.4913 25.4864 23.2367 25.3851 20.222H31.6931C31.7184 21.3367 32.0351 22.2233 32.6431 22.882C33.2511 23.5153 34.1377 23.832 35.3031 23.832C36.2911 23.832 37.0511 23.5533 37.5831 22.996C38.1404 22.4133 38.4191 21.6533 38.4191 20.716C38.4191 19.5 38.0264 18.626 37.2411 18.094C36.4811 17.5367 35.2524 17.258 33.5551 17.258H32.3391V11.976H33.5551C34.8471 11.976 35.8857 11.7607 36.6711 11.33C37.4817 10.874 37.8871 10.076 37.8871 8.936C37.8871 8.024 37.6337 7.31467 37.1271 6.808C36.6204 6.30133 35.9237 6.048 35.0371 6.048C34.0744 6.048 33.3524 6.33933 32.8711 6.922C32.4151 7.50467 32.1491 8.22667 32.0731 9.088H25.7271Z" fill="#FFBD2F"/>
</svg>
