<svg width="45" height="29" viewBox="0 0 45 29" fill="none" xmlns="http://www.w3.org/2000/svg">
<path d="M0.71 14.75C0.71 10.3927 1.546 6.96 3.218 4.452C4.91533 1.944 7.63867 0.689998 11.388 0.689998C15.1373 0.689998 17.848 1.944 19.52 4.452C21.2173 6.96 22.066 10.3927 22.066 14.75C22.066 19.158 21.2173 22.616 19.52 25.124C17.848 27.632 15.1373 28.886 11.388 28.886C7.63867 28.886 4.91533 27.632 3.218 25.124C1.546 22.616 0.71 19.158 0.71 14.75ZM15.682 14.75C15.682 12.1913 15.4033 10.228 14.846 8.86C14.2887 7.46667 13.136 6.77 11.388 6.77C9.64 6.77 8.48733 7.46667 7.93 8.86C7.37267 10.228 7.094 12.1913 7.094 14.75C7.094 16.4727 7.19533 17.904 7.398 19.044C7.60067 20.1587 8.006 21.0707 8.614 21.78C9.24733 22.464 10.172 22.806 11.388 22.806C12.604 22.806 13.516 22.464 14.124 21.78C14.7573 21.0707 15.1753 20.1587 15.378 19.044C15.5807 17.904 15.682 16.4727 15.682 14.75ZM25.2711 23.794C26.1324 23.11 26.5251 22.7933 26.4491 22.844C28.9317 20.792 30.8824 19.1073 32.3011 17.79C33.7451 16.4727 34.9611 15.092 35.9491 13.648C36.9371 12.204 37.4311 10.798 37.4311 9.43C37.4311 8.39133 37.1904 7.58066 36.7091 6.998C36.2277 6.41533 35.5057 6.124 34.5431 6.124C33.5804 6.124 32.8204 6.49133 32.2631 7.226C31.7311 7.93533 31.4651 8.94867 31.4651 10.266H25.1951C25.2457 8.11267 25.7017 6.314 26.5631 4.87C27.4497 3.426 28.6024 2.362 30.0211 1.678C31.4651 0.993998 33.0611 0.651998 34.8091 0.651998C37.8237 0.651998 40.0911 1.42466 41.6111 2.97C43.1564 4.51533 43.9291 6.52933 43.9291 9.012C43.9291 11.7227 43.0044 14.2433 41.1551 16.574C39.3057 18.8793 36.9497 21.134 34.0871 23.338H44.3471V28.62H25.2711V23.794Z" fill="#FFBD2F"/>
</svg>
